<?xml version="1.0" encoding="utf-8"?>
<svg viewBox="3.469 1.124 501.733 244.301" xmlns="http://www.w3.org/2000/svg">
  <g id="A_SELECTED-Homepage_ayro" stroke="none" stroke-width="1" fill="none" fill-rule="evenodd" transform="matrix(0.305376, 0, 0, 0.305376, 3.468799, 24.027417)" style="">
    <g id="ADA--SELECTED---Ayro_Homepage_Desktop_V02" transform="translate(-279.000000, 0.000000)">
      <g id="ayro-wall-print-ice-2022-06-30" transform="translate(279.000000, -75.000000)">
        <path d="M821.5,0 L0,800 C143.528801,759.81687 366.930602,702.387932 491.447044,696.406574 C491.447044,696.406574 502.759529,695.273542 542.550997,705.207338 C574.154758,713.099042 639.300432,732.360594 664.786485,739.949277 L664.786485,552.722242 C657.521707,553.367807 651.588586,553.736702 645.787311,554.421791 C598.230046,560.034254 553.151508,569.282962 509.391441,580.40249 C464.616151,591.785514 422.451434,605.474128 382.119393,620.756892 C377.755252,622.416916 373.865761,625.526168 366.614169,624.182339 C373.087863,613.339482 818.309299,176.792596 827.538599,172.089193 C828.514268,172.32634 829.648153,172.484437 830.426052,172.853332 C831.639045,173.419848 832.891593,174.052238 833.643122,174.803201 C984.344408,322.795692 1134.99295,470.801357 1285.60195,618.807022 C1286.89405,620.071803 1287.68513,621.481506 1288.62125,622.825335 C1288.79265,623.075656 1288.64762,623.431376 1288.43666,623.681697 C1288.23889,623.932018 1287.76424,624.116465 1285.62832,625.381246 C1241.27494,607.555746 1192.79474,592.984421 1140.87334,581.785844 C1088.99149,570.574092 1035.94938,561.246336 981.206446,554.645763 C978.200331,561.088238 977.580649,677.27677 978.965044,739.725305 C1004.95212,731.9917 1069.13531,713.019993 1100.449,705.207338 C1140.24047,695.273542 1151.55296,696.406574 1151.55296,696.406574 C1276.0694,702.374757 1499.4712,759.81687 1643,800 L821.5,0 Z" id="Mask" transform="matrix(1, 0, 0, 1, 0, 0)" fill="#050000"/>
      </g>
    </g>
  </g>
</svg>